<svg width="48" height="48" viewBox="0 0 48 48" fill="none" xmlns="http://www.w3.org/2000/svg">
<rect width="48" height="48" rx="8.88889" fill="white"/>
<path d="M16.5 30.5C14.3 30.5 12.5833 29.9167 11.35 28.75C10.1167 27.5833 9.5 25.9333 9.5 23.8C9.5 21.6667 10.1167 20.0167 11.35 18.85C12.5833 17.6833 14.3 17.1 16.5 17.1C17.7 17.1 18.7333 17.2833 19.6 17.65C20.4667 18.0167 21.1333 18.5333 21.6 19.2C22.0667 19.8667 22.3 20.6333 22.3 21.5C22.3 21.7 22.2667 21.8833 22.2 22.05C22.1333 22.2167 22.0333 22.35 21.9 22.45C21.7667 22.55 21.6 22.6 21.4 22.6C21.1333 22.6 20.9167 22.5167 20.75 22.35C20.5833 22.1833 20.4333 21.9333 20.3 21.6C20.0333 20.8 19.6333 20.2167 19.1 19.85C18.5667 19.4833 17.7667 19.3 16.7 19.3C15.3 19.3 14.2333 19.6833 13.5 20.45C12.7667 21.2167 12.4 22.3333 12.4 23.8C12.4 25.2667 12.7833 26.3833 13.55 27.15C14.3167 27.9167 15.4 28.3 16.8 28.3C17.8 28.3 18.5833 28.1167 19.15 27.75C19.7167 27.3833 20.1 26.8 20.3 26C20.4333 25.6667 20.5833 25.4167 20.75 25.25C20.9167 25.0833 21.1333 25 21.4 25C21.6 25 21.7667 25.05 21.9 25.15C22.0333 25.25 22.1333 25.3833 22.2 25.55C22.2667 25.7167 22.3 25.9 22.3 26.1C22.3 26.9667 22.0667 27.7333 21.6 28.4C21.1333 29.0667 20.4667 29.5833 19.6 29.95C18.7333 30.3167 17.7 30.5 16.5 30.5ZM31.1398 30.5C29.9398 30.5 28.9398 30.2833 28.1398 29.85C27.3398 29.4167 26.7398 28.8 26.3398 28C25.9398 27.2 25.7398 26.2667 25.7398 25.2V17.6C25.7398 17.4 25.7898 17.2333 25.8898 17.1C25.9898 16.9667 26.1398 16.8667 26.3398 16.8C26.5398 16.7333 26.7398 16.7 26.9398 16.7C27.1398 16.7 27.3398 16.7333 27.5398 16.8C27.7398 16.8667 27.8898 16.9667 27.9898 17.1C28.0898 17.2333 28.1398 17.4 28.1398 17.6V25.2C28.1398 26.1333 28.3398 26.8333 28.7398 27.3C29.1398 27.7667 29.7398 28 30.5398 28C31.3398 28 31.9398 27.7667 32.3398 27.3C32.7398 26.8333 32.9398 26.1333 32.9398 25.2V17.6C32.9398 17.4 32.9898 17.2333 33.0898 17.1C33.1898 16.9667 33.3398 16.8667 33.5398 16.8C33.7398 16.7333 33.9398 16.7 34.1398 16.7C34.3398 16.7 34.5398 16.7333 34.7398 16.8C34.9398 16.8667 35.0898 16.9667 35.1898 17.1C35.2898 17.2333 35.3398 17.4 35.3398 17.6V25.2C35.3398 26.2667 35.1398 27.2 34.7398 28C34.3398 28.8 33.7398 29.4167 32.9398 29.85C32.1398 30.2833 31.1398 30.5 30.9398 30.5H31.1398Z" fill="url(#paint0_linear_1545_39)"/>
<defs>
<linearGradient id="paint0_linear_1545_39" x1="8" y1="35.5" x2="38.0109" y2="10.5484" gradientUnits="userSpaceOnUse">
<stop stop-color="#989FFF"/>
<stop offset="1" stop-color="#29A2FF"/>
</linearGradient>
</defs>
</svg>
